<svg xmlns="http://www.w3.org/2000/svg" viewBox="0 0 100 100" width="100%">
  
  <path fill="#ffffff" d="&#xA;M69.250107,68.269714&#xA;&#x9;C79.304695,64.904274 74.835091,56.776768 76.216286,49.166157&#xA;&#x9;C68.179718,53.692318 61.075470,57.693401 53.112835,62.177929&#xA;&#x9;C53.112835,57.886406 53.025169,54.344410 53.179276,50.812965&#xA;&#x9;C53.214382,50.008583 53.895962,48.912743 54.600521,48.505234&#xA;&#x9;C65.043159,42.465378 75.539864,36.519001 86.832260,30.090227&#xA;&#x9;C86.832260,43.761086 86.864830,56.480541 86.767319,69.199005&#xA;&#x9;C86.759926,70.164276 86.082199,71.550354 85.289345,72.019203&#xA;&#x9;C74.901695,78.161819 64.437134,84.174355 53.081924,90.746185&#xA;&#x9;C53.081924,86.706749 52.814678,83.604004 53.193802,80.582359&#xA;&#x9;C53.385571,79.053947 54.396168,77.142906 55.641335,76.320107&#xA;&#x9;C59.929848,73.486275 64.484901,71.055801 69.250107,68.269714 z"></path>
  
  <path fill="#ffffff" d="&#xA;M30.804611,34.857903&#xA;&#x9;C26.811172,36.348309 25.572569,38.890976 26.030560,42.738609&#xA;&#x9;C26.379194,45.667526 26.099766,48.671204 26.099766,52.721470&#xA;&#x9;C33.861839,48.333672 40.977444,44.311310 48.883141,39.842319&#xA;&#x9;C48.883141,43.958218 48.996651,47.348412 48.811291,50.722183&#xA;&#x9;C48.758343,51.685867 48.078007,53.021172 47.280350,53.476357&#xA;&#x9;C36.910595,59.393963 26.468281,65.184448 16.035530,70.991302&#xA;&#x9;C15.945299,71.041527 15.736049,70.877914 15.152112,70.635597&#xA;&#x9;C15.152112,58.071911 15.104051,45.324444 15.244141,32.579041&#xA;&#x9;C15.255244,31.568821 16.349703,30.198116 17.314693,29.628124&#xA;&#x9;C27.452961,23.639723 37.667469,17.780399 47.915550,11.853801&#xA;&#x9;C50.688690,20.449862 49.416710,24.024025 42.330086,28.144417&#xA;&#x9;C38.594902,30.316174 34.866493,32.499584 30.804611,34.857903 z"></path>
</svg>