<svg width="263" height="97" viewBox="0 0 263 97" fill="none" xmlns="http://www.w3.org/2000/svg">
<path d="M99.1243 94.7943H0V72.4969H11.1689V83.6456H87.9554V72.8004H99.1243V94.7943Z" fill="#EF7918"></path>
<path d="M99.1243 35.692H87.9554V11.1689H11.1689V27.4165H0V0H99.1243V35.692Z" fill="#EF7918"></path>
<path d="M176.184 67.3072C178.341 67.3072 180.089 65.5588 180.089 63.4021C180.089 61.2454 178.341 59.497 176.184 59.497C174.028 59.497 172.279 61.2454 172.279 63.4021C172.279 65.5588 174.028 67.3072 176.184 67.3072Z" fill="#1D1D1B"></path>
<path d="M41.2459 37.6751V38.1708C41.2459 38.4338 41.0536 38.5755 40.6894 38.6159C38.8583 38.8587 38.2614 39.3241 37.7455 41.1249C35.4186 48.7529 30.9571 65.2838 30.8256 65.7795C30.694 66.2752 30.3804 66.5281 29.8038 66.5281H27.224C26.5967 66.5281 26.3135 66.3056 26.1718 65.7795C26.0302 65.2534 21.5991 49.9973 20.1827 45.4144C20.1321 45.2525 19.8893 45.2121 19.8387 45.4346C19.0496 48.6214 15.2659 65.304 15.1547 65.7795C15.0333 66.2955 14.7095 66.518 14.143 66.518H11.4519C10.8247 66.518 10.5414 66.2651 10.4099 65.7795C10.2784 65.2939 6.15072 48.7833 3.73281 40.6899C3.27755 39.2027 2.104 38.6969 1.36548 38.6159C0.626953 38.535 0.626953 38.1607 0.626953 38.1607V37.6649H12.6052V38.1607C12.6052 38.1607 12.5648 38.5249 12.1196 38.6058C11.7858 38.6766 10.8146 38.798 10.8146 38.798C9.68148 38.97 9.68148 39.4961 9.89393 40.4572C10.5819 43.4214 14.8916 60.195 14.9726 60.4884C15.0535 60.7818 15.1749 60.6604 15.2154 60.4884C15.2558 60.3164 19.171 42.5311 20.0107 38.9801C20.0815 38.6665 20.5469 38.3225 21.0426 38.3225H23.3189C23.9259 38.3225 24.189 38.7576 24.2497 38.9801C25.9999 45.1817 30.6435 60.5491 30.7446 60.8729C30.8458 61.1966 31.0279 61.146 31.0987 60.8729C31.1695 60.5997 34.7003 46.7397 35.8637 40.6899C36.1268 39.4657 35.8233 38.9801 34.8622 38.8486L33.2637 38.626C32.6365 38.535 32.6365 38.1 32.6365 38.1V37.6649H41.2459V37.6751Z" fill="#1D1D1B"></path>
<path d="M54.5695 61.844C54.5695 64.2923 55.0045 64.8588 55.6621 65.1218C55.9656 65.2331 56.3197 65.2736 56.6637 65.2736C56.7648 65.2736 57.2808 65.2837 57.301 65.5872C57.3212 65.8907 56.9267 66.0526 56.8559 66.0931C55.6722 66.7001 54.2559 67.044 52.4247 67.044C50.371 67.044 49.6224 65.911 49.2784 64.3732C47.8317 65.2938 46.0006 67.044 43.3803 67.044C39.2729 67.044 37.4316 64.1608 37.4316 61.0549C37.4316 58.8292 38.3523 57.1195 41.6301 56.1988C44.2504 55.5008 47.3562 54.9949 48.7422 54.1654C49.0356 53.9934 49.1975 53.6595 49.1975 53.3156V50.8268C49.1975 48.1155 48.0644 46.8509 46.3142 46.8509C44.564 46.8509 43.2994 47.9435 42.5609 51.8385C42.3383 52.7591 41.8122 53.1031 40.9422 53.1031C39.9406 53.1031 38.0993 52.4961 38.0993 50.7864C38.0993 48.5607 41.1647 45.8494 46.8403 45.8494C53.8815 45.8494 54.5796 49.2587 54.5796 51.798V61.8541L54.5695 61.844ZM49.1873 55.4502C49.1873 55.2479 48.985 55.0961 48.7928 55.177C47.8115 55.5514 46.3951 55.8245 45.2114 56.472C43.6838 57.1701 43.1173 58.2222 43.1173 60.1849C43.1173 62.6736 44.3009 64.8183 46.4457 64.8183C47.4978 64.8183 49.1975 64.2113 49.1975 61.7631V55.4603L49.1873 55.4502Z" fill="#1D1D1B"></path>
<path d="M72.2039 36.3194C72.2039 34.6602 71.9004 34.2657 71.1518 34.1342L70.2109 33.9925C69.7051 33.9116 69.7051 33.2237 69.7051 33.2237V33.0416L77.6569 32.2524L77.6973 32.2929V63.4627C77.6973 65.1017 77.8086 65.3647 79.1036 65.5063C79.316 65.5266 79.8117 65.6176 79.8117 66.0729V66.5281H70.0592C70.0592 66.5281 70.0592 66.5787 70.0592 66.0729C70.0592 65.567 70.6055 65.5367 70.8382 65.5164C72.0421 65.395 72.1837 65.0814 72.1837 63.4729V36.3295L72.2039 36.3194Z" fill="#1D1D1B"></path>
<path d="M87.4997 55.7232C87.2974 55.7232 87.1355 55.8851 87.1355 56.0874C87.1557 60.6602 88.5114 64.6058 92.7301 64.6058C95.3908 64.6058 97.0297 63.5435 98.2842 61.3178C98.3652 61.1661 98.5068 60.64 98.9722 60.812C99.4375 60.984 99.2352 61.419 99.1846 61.5606C97.8087 64.798 95.3807 67.0642 90.9394 67.0642C83.5036 67.0642 81.3184 62.3902 81.3184 56.482C81.3184 50.5738 83.8981 45.8594 91.0709 45.8594C98.8912 45.8594 99.6803 51.3224 99.6803 54.2057C99.6803 55.3388 99.0733 55.7334 97.5862 55.7334H87.4997V55.7232ZM92.7402 54.6306C93.7924 54.6306 94.0959 54.2361 94.0959 53.103C94.0959 50.4322 93.6608 46.8913 90.818 46.8913C87.9752 46.8913 87.2063 51.1909 87.1558 54.2462C87.1558 54.4586 87.3277 54.6306 87.5402 54.6306H92.7503H92.7402Z" fill="#1D1D1B"></path>
<path d="M119.206 61.5505C117.739 65.5365 114.391 67.0136 110.85 67.0136C104.901 67.0136 101.451 63.5132 101.451 56.654C101.451 50.2703 104.82 45.8594 111.679 45.8594C115.615 45.8594 119.156 47.6096 119.156 50.2703C119.156 52.0205 117.365 52.7186 116.05 52.7186C115.048 52.7186 114.391 52.324 114.208 51.4034C113.723 48.601 113.156 46.9014 111.103 46.9014C109.049 46.9014 107.258 49.8353 107.258 55.5108C107.258 61.5404 109.575 64.6058 112.721 64.6058C114.836 64.6058 116.879 63.9381 118.356 61.3178C118.437 61.1661 118.741 60.7918 119.024 60.9334C119.307 61.075 119.267 61.3988 119.206 61.5505Z" fill="#1D1D1B"></path>
<path d="M145.095 45.8494C152.348 45.8494 155.282 49.8758 155.282 56.472C155.282 63.0681 152.348 67.0542 145.054 67.0542C137.76 67.0542 134.775 63.0783 134.775 56.472C134.775 49.8657 137.79 45.8494 145.054 45.8494H145.095ZM140.633 56.5125C140.633 62.0666 141.989 66.0425 145.044 66.0425C148.099 66.0425 149.414 62.0666 149.414 56.472C149.414 50.8774 148.15 46.9015 145.044 46.9015C141.938 46.9015 140.633 50.8774 140.633 56.472V56.5125Z" fill="#1D1D1B"></path>
<path d="M157.164 47.0735L160.513 46.507C160.513 46.507 164.317 45.5459 164.701 47.9334L164.792 48.8642L164.914 49.8253C167.493 47.114 168.667 45.8494 170.377 45.8494C172.086 45.8494 173.088 46.942 173.088 48.5202C173.088 50.0074 171.995 51.7576 170.377 51.7576C169.719 51.7576 169.243 51.4541 168.849 51.1C167.979 50.3109 167.402 49.9163 166.664 49.9163C165.662 49.9163 165.045 50.8774 165.045 53.2346V63.4222C165.045 64.9802 165.065 65.3242 166.886 65.4759C167.382 65.5164 167.999 65.6378 167.999 66.5281H157.417C157.417 65.7491 158.135 65.5265 158.398 65.4861C159.552 65.3343 159.531 64.9195 159.531 63.4222V50.1793C159.531 48.6011 159.177 48.2066 158.479 48.0852L157.913 48.0042C157.164 47.9031 157.164 47.0735 157.164 47.0735Z" fill="#1D1D1B"></path>
<path d="M199.958 61.5505C198.492 65.5365 195.133 67.0136 191.592 67.0136C185.643 67.0136 182.193 63.5132 182.193 56.654C182.193 50.2703 185.562 45.8594 192.421 45.8594C196.357 45.8594 199.898 47.6096 199.898 50.2703C199.898 52.0205 198.107 52.7186 196.792 52.7186C195.79 52.7186 195.133 52.324 194.961 51.4034C194.475 48.601 193.909 46.9014 191.855 46.9014C189.801 46.9014 188.011 49.8353 188.011 55.5108C188.011 61.5404 190.327 64.6058 193.474 64.6058C195.588 64.6058 197.632 63.9381 199.109 61.3178C199.19 61.1661 199.372 60.8423 199.706 61.0042C200.039 61.1661 200.009 61.4089 199.958 61.5505Z" fill="#1D1D1B"></path>
<path d="M212.188 45.8494C219.442 45.8494 222.376 49.8758 222.376 56.472C222.376 63.0681 219.452 67.0542 212.148 67.0542C204.843 67.0542 201.869 63.0783 201.869 56.472C201.869 49.8657 204.884 45.8494 212.148 45.8494H212.188ZM207.727 56.5125C207.727 62.0666 209.082 66.0425 212.138 66.0425C215.193 66.0425 216.508 62.0666 216.508 56.472C216.508 50.8774 215.244 46.9015 212.138 46.9015C209.032 46.9015 207.727 50.8774 207.727 56.472V56.5125Z" fill="#1D1D1B"></path>
<path d="M223.428 47.0735L226.898 46.507C226.898 46.507 230.702 45.5459 231.086 47.9334L231.248 48.7832C233.565 47.2961 235.406 45.8494 238.158 45.8494C241.173 45.8494 242.751 47.4681 243.581 49.0867C245.462 47.8626 247.87 45.8494 250.794 45.8494C254.992 45.8494 256.874 48.2976 256.874 52.2735V63.3818C256.874 65.0106 256.925 65.3748 258.28 65.5063C258.999 65.5771 258.999 66.0728 258.999 66.0728V66.5281H249.469V66.0728C249.469 66.0728 249.469 65.567 250.207 65.5063C251.411 65.4152 251.421 65.1825 251.421 63.5942V52.2331C251.421 49.4813 249.975 48.0751 247.88 48.0751C246.353 48.1155 244.906 48.8642 244.38 50.6144C244.117 51.1809 244.026 51.8385 244.026 52.7996V63.5942C244.026 65.2432 244.066 65.3849 245.361 65.5063C245.968 65.567 245.968 66.0728 245.968 66.0728V66.5281H236.661V66.0728C236.661 66.0728 236.661 65.5569 237.329 65.5164C238.472 65.4456 238.563 65.2129 238.563 63.5942V52.2331C238.563 49.6533 237.43 48.0751 235.285 48.0751C233.494 48.0751 231.957 48.9046 231.481 50.7864C231.309 51.3529 231.258 52.051 231.258 52.7996V63.5942C231.258 65.2028 231.41 65.3849 232.564 65.5063C233.16 65.567 233.16 66.0728 233.16 66.0728V66.5281H223.63V66.0728C223.63 66.0728 223.63 65.567 224.288 65.5265C225.714 65.4253 225.745 65.0409 225.745 63.3818V50.2704C225.745 48.5607 225.482 48.2167 224.693 48.1256L224.167 48.0042C223.418 47.9031 223.418 47.0735 223.418 47.0735H223.428Z" fill="#1D1D1B"></path>
<path d="M131.174 64.7374C129.686 64.7374 128.725 63.6043 128.725 60.893V47.8221H133.055C133.45 47.8221 133.774 47.4984 133.774 47.1039C133.774 46.7093 133.45 46.3856 133.055 46.3856H128.725V41.226C128.725 40.0828 126.894 40.0727 126.894 41.226C126.894 42.956 124.567 46.3856 121.917 46.3856C119.549 46.3856 120.814 46.3856 120.814 46.3856C120.419 46.3856 120.096 46.7093 120.096 47.1039C120.096 47.4984 120.419 47.8221 120.814 47.8221H123.262V61.9452C123.262 65.9717 125.711 67.0643 127.764 67.0643C129.262 67.0643 131.224 66.5787 133.177 65.2837C133.48 65.0814 133.592 64.8588 133.511 64.6362C133.43 64.4137 133.248 64.3833 132.924 64.4946C132.418 64.6565 131.872 64.7577 131.174 64.7577V64.7374Z" fill="#1D1D1B"></path>
<path d="M60.8621 36.3194C60.8621 34.6602 60.5586 34.2657 59.81 34.1342L58.8691 33.9925C58.3633 33.9116 58.3633 33.2237 58.3633 33.2237V33.0416L66.3151 32.2524L66.3555 32.2929V63.4627C66.3555 65.1017 66.4668 65.3647 67.7618 65.5063C67.9742 65.5266 68.47 65.6176 68.47 66.0729V66.5281H58.7174C58.7174 66.5281 58.7174 66.5787 58.7174 66.0729C58.7174 65.567 59.2637 65.5367 59.4964 65.5164C60.7003 65.395 60.8419 65.0814 60.8419 63.4729V36.3295L60.8621 36.3194Z" fill="#1D1D1B"></path>
<g clip-path="url(#clip0_374_12550)">
<path d="M107.4 93.72V88.39H106V87.36H107.4V86.89C107.4 85.67 108.06 85 109.26 85C109.62 85 109.91 85.06 110.15 85.16V86.14C109.96 86.06 109.74 86.03 109.53 86.03C108.95 86.03 108.62 86.29 108.62 86.91V87.37H110.39V88.4H108.62V93.73H107.41L107.4 93.72ZM111.9 86.69C111.38 86.69 111.02 86.34 111.02 85.89C111.02 85.44 111.38 85.09 111.9 85.09C112.42 85.09 112.78 85.42 112.78 85.89C112.78 86.36 112.42 86.69 111.9 86.69ZM111.3 93.72V87.36H112.51V93.72H111.3Z" fill="black"></path>
<path d="M115.409 93.72H114.199V87.36H115.329V88.42C115.759 87.71 116.479 87.24 117.359 87.24C118.669 87.24 119.529 88.08 119.529 89.6V93.71H118.319V90C118.319 88.91 117.839 88.3 116.939 88.3C116.109 88.3 115.419 89 115.419 90.12V93.71L115.409 93.72Z" fill="black"></path>
<path d="M120.68 90.5C120.68 88.62 121.96 87.24 123.71 87.24C125.61 87.24 126.86 88.78 126.65 90.84H121.91C122.01 92.14 122.65 92.89 123.72 92.89C124.62 92.89 125.24 92.4 125.45 91.57H126.65C126.34 92.99 125.25 93.84 123.75 93.84C121.92 93.84 120.68 92.51 120.68 90.51V90.5ZM121.93 90.03H125.37C125.31 88.85 124.67 88.15 123.69 88.15C122.71 88.15 122.06 88.85 121.93 90.03Z" fill="black"></path>
<path d="M134.29 92.74C133.89 93.45 133.19 93.84 132.25 93.84C130.93 93.84 130.07 93.08 130.07 91.92C130.07 90.67 131.07 90.02 132.96 90.02C133.33 90.02 133.63 90.03 134.15 90.09V89.62C134.15 88.71 133.66 88.19 132.82 88.19C131.93 88.19 131.39 88.72 131.36 89.61H130.26C130.32 88.18 131.34 87.23 132.83 87.23C134.4 87.23 135.31 88.12 135.31 89.63V93.71H134.3V92.73L134.29 92.74ZM132.49 92.98C133.51 92.98 134.14 92.34 134.14 91.37V90.85C133.67 90.79 133.34 90.78 133.02 90.78C131.81 90.78 131.21 91.14 131.21 91.88C131.21 92.54 131.7 92.97 132.48 92.97L132.49 92.98Z" fill="black"></path>
<path d="M138.13 93.72H136.92V87.36H138.05V88.7C138.49 87.82 139.45 87.27 140.5 87.27V88.53C139.13 88.46 138.14 89.06 138.14 90.46V93.71L138.13 93.72Z" fill="black"></path>
<path d="M145.431 93.61C145.061 93.78 144.731 93.84 144.351 93.84C143.171 93.84 142.361 93.2 142.361 91.8V88.39H140.961V87.36H142.361V85.48H143.571V87.36H145.491V88.39H143.571V91.52C143.571 92.4 143.991 92.71 144.641 92.71C144.931 92.71 145.181 92.66 145.431 92.54V93.61Z" fill="black"></path>
<path d="M148.989 93.84C147.309 93.84 146.319 93.01 146.199 91.64H147.359C147.409 92.43 148.039 92.92 149.019 92.92C149.869 92.92 150.439 92.62 150.439 92.02C150.439 91.49 150.119 91.27 149.319 91.11L148.289 90.92C147.109 90.69 146.459 90.09 146.459 89.13C146.459 88.01 147.429 87.23 148.909 87.23C150.389 87.23 151.459 88.05 151.569 89.35H150.409C150.339 88.58 149.769 88.14 148.919 88.14C148.149 88.14 147.639 88.46 147.639 89.02C147.639 89.54 147.959 89.78 148.729 89.92L149.809 90.12C151.069 90.35 151.669 90.9 151.669 91.81C151.669 93.06 150.699 93.82 149.009 93.82L148.989 93.84Z" fill="black"></path>
<path d="M155.029 90.5C155.029 88.62 156.309 87.24 158.059 87.24C159.959 87.24 161.209 88.78 160.999 90.84H156.259C156.359 92.14 156.999 92.89 158.069 92.89C158.969 92.89 159.589 92.4 159.799 91.57H160.999C160.689 92.99 159.599 93.84 158.099 93.84C156.269 93.84 155.029 92.51 155.029 90.51V90.5ZM156.279 90.03H159.719C159.659 88.85 159.019 88.15 158.039 88.15C157.059 88.15 156.409 88.85 156.279 90.03Z" fill="black"></path>
<path d="M161.33 93.72L163.58 90.47L161.47 87.36H162.87L164.44 89.76L166.01 87.36H167.32L165.23 90.5L167.46 93.71H166.07L164.37 91.18L162.69 93.71H161.32L161.33 93.72Z" fill="black"></path>
<path d="M171.709 93.84C170.849 93.84 170.119 93.41 169.659 92.64V96.03H168.449V87.36H169.579V88.52C170.039 87.7 170.819 87.24 171.709 87.24C173.399 87.24 174.519 88.62 174.519 90.54C174.519 92.46 173.419 93.84 171.709 93.84ZM171.459 88.31C170.449 88.31 169.659 89.11 169.659 90.54C169.659 91.97 170.439 92.76 171.459 92.76C172.479 92.76 173.259 91.97 173.259 90.54C173.259 89.11 172.509 88.31 171.459 88.31Z" fill="black"></path>
<path d="M175.289 90.5C175.289 88.62 176.569 87.24 178.319 87.24C180.219 87.24 181.469 88.78 181.259 90.84H176.519C176.619 92.14 177.259 92.89 178.329 92.89C179.229 92.89 179.849 92.4 180.059 91.57H181.259C180.949 92.99 179.859 93.84 178.359 93.84C176.529 93.84 175.289 92.51 175.289 90.51V90.5ZM176.539 90.03H179.979C179.919 88.85 179.279 88.15 178.299 88.15C177.319 88.15 176.669 88.85 176.539 90.03Z" fill="black"></path>
<path d="M183.761 93.72H182.551V87.36H183.681V88.7C184.121 87.82 185.081 87.27 186.131 87.27V88.53C184.761 88.46 183.771 89.06 183.771 90.46V93.71L183.761 93.72Z" fill="black"></path>
<path d="M191.05 93.61C190.68 93.78 190.35 93.84 189.97 93.84C188.8 93.84 187.98 93.2 187.98 91.8V88.39H186.58V87.36H187.98V85.48H189.19V87.36H191.11V88.39H189.19V91.52C189.19 92.4 189.61 92.71 190.26 92.71C190.55 92.71 190.8 92.66 191.05 92.54V93.61Z" fill="black"></path>
<path d="M194.62 93.84C192.94 93.84 191.95 93.01 191.83 91.64H192.99C193.04 92.43 193.67 92.92 194.65 92.92C195.5 92.92 196.07 92.62 196.07 92.02C196.07 91.49 195.75 91.27 194.95 91.11L193.92 90.92C192.74 90.69 192.09 90.09 192.09 89.13C192.09 88.01 193.06 87.23 194.54 87.23C196.02 87.23 197.09 88.05 197.2 89.35H196.04C195.97 88.58 195.4 88.14 194.55 88.14C193.78 88.14 193.27 88.46 193.27 89.02C193.27 89.54 193.59 89.78 194.36 89.92L195.44 90.12C196.7 90.35 197.3 90.9 197.3 91.81C197.3 93.06 196.33 93.82 194.64 93.82L194.62 93.84Z" fill="black"></path>
<path d="M205.729 91.26C205.869 90.84 205.959 90.32 205.979 89.77H207.099C207.079 90.57 206.839 91.41 206.449 92.06L207.919 93.72H206.409L205.729 92.95C205.079 93.54 204.329 93.84 203.529 93.84C201.799 93.84 200.699 92.83 200.699 91.26C200.699 90.29 201.319 89.51 202.269 89.05C201.899 88.55 201.719 88.1 201.719 87.53C201.719 86.35 202.719 85.49 204.049 85.49C205.379 85.49 206.329 86.33 206.349 87.57H205.209C205.149 86.86 204.629 86.47 204.049 86.47C203.429 86.47 202.959 86.93 202.959 87.55C202.959 88.09 203.249 88.46 203.809 89.11L205.729 91.27V91.26ZM203.629 92.84C204.179 92.84 204.709 92.62 205.099 92.25L202.889 89.77C202.279 90.02 201.859 90.53 201.859 91.19C201.859 92.04 202.419 92.84 203.619 92.84H203.629Z" fill="black"></path>
<path d="M210.939 90.5C210.939 88.62 212.219 87.24 213.969 87.24C215.869 87.24 217.119 88.78 216.909 90.84H212.169C212.269 92.14 212.909 92.89 213.979 92.89C214.879 92.89 215.499 92.4 215.709 91.57H216.909C216.599 92.99 215.509 93.84 214.009 93.84C212.179 93.84 210.939 92.51 210.939 90.51V90.5ZM212.189 90.03H215.629C215.569 88.85 214.929 88.15 213.949 88.15C212.969 88.15 212.319 88.85 212.189 90.03Z" fill="black"></path>
<path d="M217.83 90.96V89.87H221.56V90.96H217.83Z" fill="black"></path>
<path d="M226.24 93.61C225.87 93.78 225.54 93.84 225.16 93.84C223.99 93.84 223.17 93.2 223.17 91.8V88.39H221.77V87.36H223.17V85.48H224.38V87.36H226.3V88.39H224.38V91.52C224.38 92.4 224.8 92.71 225.45 92.71C225.74 92.71 225.99 92.66 226.24 92.54V93.61Z" fill="black"></path>
<path d="M228.659 93.72H227.449V87.36H228.579V88.7C229.019 87.82 229.979 87.27 231.029 87.27V88.53C229.659 88.46 228.669 89.06 228.669 90.46V93.71L228.659 93.72Z" fill="black"></path>
<path d="M235.829 92.74C235.429 93.45 234.729 93.84 233.789 93.84C232.469 93.84 231.609 93.08 231.609 91.92C231.609 90.67 232.609 90.02 234.499 90.02C234.869 90.02 235.169 90.03 235.689 90.09V89.62C235.689 88.71 235.199 88.19 234.359 88.19C233.469 88.19 232.929 88.72 232.899 89.61H231.799C231.859 88.18 232.879 87.23 234.369 87.23C235.939 87.23 236.849 88.12 236.849 89.63V93.71H235.839V92.73L235.829 92.74ZM234.029 92.98C235.049 92.98 235.689 92.34 235.689 91.37V90.85C235.219 90.79 234.889 90.78 234.569 90.78C233.359 90.78 232.759 91.14 232.759 91.88C232.759 92.54 233.249 92.97 234.029 92.97V92.98Z" fill="black"></path>
<path d="M240.83 87.24C241.68 87.24 242.42 87.67 242.87 88.45V85.11H244.08V93.72H242.95V92.58C242.49 93.38 241.73 93.84 240.83 93.84C239.12 93.84 238.01 92.45 238.01 90.54C238.01 88.63 239.11 87.24 240.83 87.24ZM241.07 92.76C242.1 92.76 242.87 91.92 242.87 90.52C242.87 89.12 242.08 88.31 241.07 88.31C240.06 88.31 239.27 89.1 239.27 90.54C239.27 91.98 240.01 92.76 241.07 92.76Z" fill="black"></path>
<path d="M245.311 90.5C245.311 88.62 246.591 87.24 248.341 87.24C250.241 87.24 251.491 88.78 251.281 90.84H246.541C246.641 92.14 247.281 92.89 248.351 92.89C249.251 92.89 249.871 92.4 250.081 91.57H251.281C250.971 92.99 249.881 93.84 248.381 93.84C246.551 93.84 245.311 92.51 245.311 90.51V90.5ZM246.561 90.03H250.001C249.941 88.85 249.301 88.15 248.321 88.15C247.341 88.15 246.691 88.85 246.561 90.03Z" fill="black"></path>
<path d="M253.78 93.72H252.57V87.36H253.7V88.7C254.14 87.82 255.1 87.27 256.15 87.27V88.53C254.78 88.46 253.79 89.06 253.79 90.46V93.71L253.78 93.72Z" fill="black"></path>
<path d="M259.479 93.84C257.799 93.84 256.809 93.01 256.689 91.64H257.849C257.899 92.43 258.529 92.92 259.509 92.92C260.359 92.92 260.929 92.62 260.929 92.02C260.929 91.49 260.609 91.27 259.809 91.11L258.779 90.92C257.599 90.69 256.949 90.09 256.949 89.13C256.949 88.01 257.919 87.23 259.399 87.23C260.879 87.23 261.949 88.05 262.059 89.35H260.899C260.829 88.58 260.259 88.14 259.409 88.14C258.639 88.14 258.129 88.46 258.129 89.02C258.129 89.54 258.449 89.78 259.219 89.92L260.299 90.12C261.559 90.35 262.159 90.9 262.159 91.81C262.159 93.06 261.189 93.82 259.499 93.82L259.479 93.84Z" fill="black"></path>
</g>
<defs>
<clipPath id="clip0_374_12550">
<rect width="156.14" height="11.03" fill="white" transform="translate(106 85)"></rect>
</clipPath>
</defs>
</svg>